# xmcd
# 
# Track frame offsets:
#     150
#     11347
#     24420
#     37771
#     51860
#     65014
#     79931
#     94186
#     108863
#     121968
#     135523
#     148092
#     161391
#     173993
#     188048
#     200618
#     212458
# 
# Disc length: 3029
# 
# Revision: 1
# Processed by: cddbd v1.5.2PL0 Copyright (c) Steve Scherf et al.
# Submitted via: fre:ac v1.1rc1
# 
DISCID=de0bd311
DTITLE=Ella Fitzgerald - Portrait
DYEAR=0
DGENRE=Jazz
TTITLE0=Flying Home
TTITLE1=A Four Leas Clever In Your Pocket
TTITLE2=One To Often
TTITLE3=Time Alone Will Tell
TTITLE4=I'm Just A Lucky So And So
TTITLE5=I Didn't Mean A Word I Said
TTITLE6=For Sentimental Reasons
TTITLE7=And Her Tears Flowed Like Wine
TTITLE8=You Won't Be Satisfied
TTITLE9=My Man
TTITLE10=Can't Help Lovin' Dat Man
TTITLE11=I Got It Bad
TTITLE12=Make Love To Me
TTITLE13=A Kiss Goodnight
TTITLE14=Cry You Out Of My Heart
TTITLE15=Petootie Pie
TTITLE16=He's My Guy
EXTD=
EXTT0=
EXTT1=
EXTT2=
EXTT3=
EXTT4=
EXTT5=
EXTT6=
EXTT7=
EXTT8=
EXTT9=
EXTT10=
EXTT11=
EXTT12=
EXTT13=
EXTT14=
EXTT15=
EXTT16=
PLAYORDER=
